<svg width="421" height="133" viewBox="0 0 421 133" fill="none" xmlns="http://www.w3.org/2000/svg">
<path d="M0.176383 82.3366C3.15709 83.5916 5.70638 84.2192 7.82426 84.2192C8.37334 84.2192 9.11851 84.1407 10.0598 83.9838C11.9423 83.5916 13.3935 82.3366 14.4132 80.2187C15.4329 78.1009 16.1389 74.6495 16.5311 69.8647C17.0017 65.0014 17.2762 58.0987 17.3547 49.1566L17.59 19.0357H83.3617V101.397H65.4775V36.3317H35.1213L34.886 53.7453C34.7291 64.57 34.0624 73.3945 32.8858 80.2187C31.7876 86.9645 29.5521 92.2985 26.1792 96.2204C22.8847 100.142 18.0214 102.103 11.5894 102.103C9.70681 102.103 7.19674 101.672 4.05915 100.809L0.176383 82.3366ZM162.787 87.396C160.198 92.3377 156.472 96.2204 151.609 99.0443C146.746 101.79 140.784 103.162 133.725 103.162C127.371 103.162 121.723 101.829 116.782 99.1619C111.84 96.4165 107.957 92.6906 105.133 87.9843C102.388 83.1994 101.015 77.8655 101.015 71.9826C101.015 66.178 102.349 60.8833 105.016 56.0985C107.683 51.3137 111.369 47.5878 116.076 44.9208C120.782 42.1755 126.038 40.8028 131.842 40.8028C138.353 40.8028 143.686 42.0186 147.844 44.4502C152.08 46.8034 155.139 49.9018 157.021 53.7453C158.904 57.5889 159.845 61.7462 159.845 66.2172C159.845 69.6686 159.296 73.0415 158.198 76.336H116.782C117.723 80.0226 119.723 83.0033 122.782 85.2781C125.92 87.5528 129.567 88.6902 133.725 88.6902C137.882 88.6902 141.373 87.9058 144.196 86.337C147.02 84.6898 149.099 82.4935 150.432 79.7481L162.787 87.396ZM131.842 54.8043C128.234 54.8043 125.175 55.7063 122.665 57.5104C120.155 59.3145 118.35 61.8246 117.252 65.0406H144.667C144.589 61.903 143.49 59.4322 141.373 57.6281C139.255 55.7455 136.078 54.8043 131.842 54.8043ZM205.522 57.8634V101.397H189.755V57.8634H168.812V42.5677H226.465V57.8634H205.522ZM269.326 101.397V79.9834L245.323 101.397H223.909L250.382 79.9834C244.656 79.199 240.224 77.1988 237.087 73.9828C233.949 70.7667 232.38 66.5702 232.38 61.3932C232.38 55.4318 234.459 50.8038 238.616 47.5094C242.852 44.2149 248.657 42.5677 256.03 42.5677H284.974V101.397H269.326ZM248.853 62.2168C248.853 66.3741 251.677 68.4528 257.324 68.4528H269.326V56.2162H257.324C254.579 56.2162 252.461 56.726 250.971 57.7457C249.559 58.7655 248.853 60.2558 248.853 62.2168ZM319.759 57.8634V101.397H303.757V42.5677H347.292V57.8634H319.759ZM383.851 40.8028C392.872 40.8028 399.736 42.9598 404.442 47.274C409.148 51.5882 411.502 57.8242 411.502 65.9819V101.397H396.088V94.9262C393.186 97.5147 389.97 99.5541 386.44 101.044C382.91 102.456 379.106 103.162 375.027 103.162C369.301 103.162 364.595 101.711 360.908 98.8089C357.221 95.9067 355.378 91.6317 355.378 85.984C355.378 81.2777 357.535 77.4341 361.849 74.4534C366.242 71.3943 372.125 69.2372 379.498 67.9821C384.832 67.1193 388.479 66.4918 390.44 66.0996C392.401 65.6289 393.774 65.0799 394.559 64.4523C395.343 63.7464 395.735 62.6874 395.735 61.2755C395.735 59.5499 394.912 58.0987 393.264 56.9221C391.617 55.7455 389.068 55.1572 385.616 55.1572C380.439 55.1572 375.968 56.2946 372.203 58.5694C368.438 60.7657 365.379 63.9033 363.026 67.9821L352.554 55.9808C356.476 51.0391 361.222 47.274 366.791 44.6855C372.36 42.097 378.047 40.8028 383.851 40.8028ZM377.263 89.6315C379.616 89.6315 382.243 89.1216 385.146 88.1019C388.126 87.0038 390.637 85.5526 392.676 83.7485C394.794 81.9444 395.853 79.9834 395.853 77.8655V74.5711C392.637 76.2183 388.872 77.4341 384.557 78.2185C379.459 79.2382 375.968 80.2972 374.086 81.3953C372.282 82.4935 371.38 83.827 371.38 85.3958C371.38 86.8077 371.811 87.8666 372.674 88.5726C373.615 89.2785 375.145 89.6315 377.263 89.6315Z" fill="black"/>
<path d="M194.667 12.444C194.667 11.1387 194.85 10.024 195.217 9.1C195.598 8.16133 196.148 7.36933 196.867 6.724C197.6 6.07867 198.546 5.48467 199.705 4.942L201.069 4.304C202.609 3.6 203.592 2.86667 204.017 2.104L205.975 4.128C205.711 4.64133 205.256 5.13267 204.611 5.602C203.98 6.05667 203.188 6.46733 202.235 6.834L200.981 7.318C199.602 7.846 198.583 8.40333 197.923 8.99C197.278 9.562 196.918 10.2147 196.845 10.948H196.999C197.38 10.376 197.982 9.88467 198.803 9.474C199.624 9.04867 200.504 8.836 201.443 8.836C202.323 8.836 203.181 9.04867 204.017 9.474C204.853 9.88467 205.528 10.4787 206.041 11.256C206.569 12.0333 206.833 12.928 206.833 13.94C206.833 14.9813 206.569 15.9127 206.041 16.734C205.513 17.5553 204.802 18.1933 203.907 18.648C203.012 19.1027 202.037 19.33 200.981 19.33C199.676 19.33 198.546 19.0513 197.593 18.494C196.654 17.922 195.928 17.1153 195.415 16.074C194.916 15.0327 194.667 13.8227 194.667 12.444ZM200.783 16.514C201.634 16.514 202.338 16.272 202.895 15.788C203.467 15.304 203.753 14.6953 203.753 13.962C203.753 13.2287 203.467 12.62 202.895 12.136C202.338 11.652 201.634 11.41 200.783 11.41C199.932 11.41 199.228 11.652 198.671 12.136C198.128 12.62 197.857 13.2287 197.857 13.962C197.857 14.6953 198.128 15.304 198.671 15.788C199.228 16.272 199.932 16.514 200.783 16.514ZM219.066 19H216.074V10.86H212.202L212.18 13.148C212.165 14.512 212.07 15.612 211.894 16.448C211.718 17.284 211.388 17.9367 210.904 18.406C210.42 18.8607 209.716 19.088 208.792 19.088C208.63 19.088 208.264 19.0367 207.692 18.934L207.032 16.184C207.398 16.3453 207.706 16.426 207.956 16.426C208.146 16.426 208.322 16.3747 208.484 16.272C208.865 16.0667 209.107 15.6853 209.21 15.128C209.312 14.556 209.371 13.6687 209.386 12.466L209.43 8H219.066V19ZM227.23 7.67C228.917 7.67 230.2 8.07333 231.08 8.88C231.96 9.68667 232.4 10.8527 232.4 12.378V19H229.518V17.79C228.975 18.274 228.374 18.6553 227.714 18.934C227.054 19.198 226.343 19.33 225.58 19.33C224.509 19.33 223.629 19.0587 222.94 18.516C222.251 17.9733 221.906 17.174 221.906 16.118C221.906 15.238 222.309 14.5193 223.116 13.962C223.937 13.39 225.037 12.9867 226.416 12.752C227.413 12.5907 228.095 12.4733 228.462 12.4C228.829 12.312 229.085 12.2093 229.232 12.092C229.379 11.96 229.452 11.762 229.452 11.498C229.452 11.1753 229.298 10.904 228.99 10.684C228.682 10.464 228.205 10.354 227.56 10.354C226.592 10.354 225.756 10.5667 225.052 10.992C224.348 11.4027 223.776 11.9893 223.336 12.752L221.378 10.508C222.111 9.584 222.999 8.88 224.04 8.396C225.081 7.912 226.145 7.67 227.23 7.67ZM225.998 16.8C226.438 16.8 226.929 16.7047 227.472 16.514C228.029 16.3087 228.499 16.0373 228.88 15.7C229.276 15.3627 229.474 14.996 229.474 14.6V13.984C228.873 14.292 228.169 14.5193 227.362 14.666C226.409 14.8567 225.756 15.0547 225.404 15.26C225.067 15.4653 224.898 15.7147 224.898 16.008C224.898 16.272 224.979 16.47 225.14 16.602C225.316 16.734 225.602 16.8 225.998 16.8ZM238.922 10.86V19H235.93V8H244.07V10.86H238.922ZM251.103 19.33C249.944 19.33 248.896 19.0807 247.957 18.582C247.018 18.0687 246.278 17.3647 245.735 16.47C245.207 15.5753 244.943 14.5853 244.943 13.5C244.943 12.4147 245.207 11.4247 245.735 10.53C246.278 9.63533 247.018 8.93867 247.957 8.44C248.896 7.92667 249.944 7.67 251.103 7.67C252.262 7.67 253.31 7.92667 254.249 8.44C255.188 8.93867 255.921 9.63533 256.449 10.53C256.992 11.4247 257.263 12.4147 257.263 13.5C257.263 14.5853 256.992 15.5753 256.449 16.47C255.921 17.3647 255.188 18.0687 254.249 18.582C253.31 19.0807 252.262 19.33 251.103 19.33ZM251.103 16.382C251.983 16.382 252.716 16.1107 253.303 15.568C253.89 15.0107 254.183 14.3213 254.183 13.5C254.183 12.6787 253.89 11.9967 253.303 11.454C252.716 10.8967 251.983 10.618 251.103 10.618C250.223 10.618 249.49 10.8967 248.903 11.454C248.316 11.9967 248.023 12.6787 248.023 13.5C248.023 14.3213 248.316 15.0107 248.903 15.568C249.49 16.1107 250.223 16.382 251.103 16.382ZM272.006 21.684H269.19V19H261.71L261.798 21.684H258.982L258.476 16.14L259.356 16.184C259.738 16.1987 260.016 16.0153 260.192 15.634C260.383 15.2527 260.5 14.754 260.544 14.138C260.588 13.5073 260.61 12.6273 260.61 11.498V8H270.378V16.14H272.314L272.006 21.684ZM267.386 10.794H263.514V11.894C263.514 13.6247 263.324 15.04 262.942 16.14H267.386V10.794ZM276.097 2.28C276.655 2.28 277.124 2.478 277.505 2.874C277.901 3.25533 278.099 3.72467 278.099 4.282C278.099 4.82467 277.901 5.28667 277.505 5.668C277.124 6.04933 276.655 6.24 276.097 6.24C275.555 6.24 275.093 6.04933 274.711 5.668C274.33 5.28667 274.139 4.82467 274.139 4.282C274.139 3.72467 274.33 3.25533 274.711 2.874C275.093 2.478 275.555 2.28 276.097 2.28ZM277.615 8V19H274.623V8H277.615ZM285.159 1.906C285.174 2.50733 285.328 2.984 285.621 3.336C285.929 3.688 286.34 3.864 286.853 3.864C287.366 3.864 287.77 3.688 288.063 3.336C288.371 2.984 288.532 2.50733 288.547 1.906L291.165 2.456C291.136 3.57067 290.725 4.47267 289.933 5.162C289.156 5.85133 288.129 6.196 286.853 6.196C285.577 6.196 284.543 5.85133 283.751 5.162C282.974 4.47267 282.57 3.57067 282.541 2.456L285.159 1.906ZM284.125 8V14.6L289.185 8H292.177V19H289.185V12.4L284.125 19H281.133V8H284.125ZM306.699 19H303.707V14.93H298.691V19H295.699V8H298.691V12.07H303.707V8H306.699V19ZM313.215 8V14.6L318.275 8H321.267V19H318.275V12.4L313.215 19H310.223V8H313.215ZM328.815 1.906C328.83 2.50733 328.984 2.984 329.277 3.336C329.585 3.688 329.996 3.864 330.509 3.864C331.023 3.864 331.426 3.688 331.719 3.336C332.027 2.984 332.189 2.50733 332.203 1.906L334.821 2.456C334.792 3.57067 334.381 4.47267 333.589 5.162C332.812 5.85133 331.785 6.196 330.509 6.196C329.233 6.196 328.199 5.85133 327.407 5.162C326.63 4.47267 326.227 3.57067 326.197 2.456L328.815 1.906ZM327.781 8V14.6L332.841 8H335.833V19H332.841V12.4L327.781 19H324.789V8H327.781ZM359.527 7.802C360.495 7.802 361.368 8.02933 362.145 8.484C362.923 8.924 363.531 9.57667 363.971 10.442C364.426 11.2927 364.653 12.312 364.653 13.5C364.653 14.688 364.426 15.7147 363.971 16.58C363.531 17.4307 362.923 18.0833 362.145 18.538C361.368 18.978 360.495 19.198 359.527 19.198C358.339 19.198 357.335 18.7433 356.513 17.834V24.5H353.565V17.834C352.744 18.7433 351.739 19.198 350.551 19.198C349.583 19.198 348.711 18.978 347.933 18.538C347.156 18.0833 346.54 17.4307 346.085 16.58C345.645 15.7147 345.425 14.688 345.425 13.5C345.425 12.312 345.645 11.2927 346.085 10.442C346.54 9.57667 347.156 8.924 347.933 8.484C348.711 8.02933 349.583 7.802 350.551 7.802C351.739 7.802 352.744 8.25667 353.565 9.166V2.5H356.513V9.166C357.335 8.25667 358.339 7.802 359.527 7.802ZM351.079 16.382C351.813 16.382 352.421 16.1107 352.905 15.568C353.404 15.0107 353.653 14.3213 353.653 13.5C353.653 12.6787 353.404 11.9967 352.905 11.454C352.421 10.8967 351.813 10.618 351.079 10.618C350.346 10.618 349.73 10.8967 349.231 11.454C348.747 11.9967 348.505 12.6787 348.505 13.5C348.505 14.3213 348.747 15.0107 349.231 15.568C349.73 16.1107 350.346 16.382 351.079 16.382ZM358.999 16.382C359.733 16.382 360.341 16.1107 360.825 15.568C361.324 15.0107 361.573 14.3213 361.573 13.5C361.573 12.6787 361.324 11.9967 360.825 11.454C360.341 10.8967 359.733 10.618 358.999 10.618C358.266 10.618 357.65 10.8967 357.151 11.454C356.667 11.9967 356.425 12.6787 356.425 13.5C356.425 14.3213 356.667 15.0107 357.151 15.568C357.65 16.1107 358.266 16.382 358.999 16.382ZM373.457 19.33C372.298 19.33 371.249 19.0807 370.311 18.582C369.372 18.0687 368.631 17.3647 368.089 16.47C367.561 15.5753 367.297 14.5853 367.297 13.5C367.297 12.4147 367.561 11.4247 368.089 10.53C368.631 9.63533 369.372 8.93867 370.311 8.44C371.249 7.92667 372.298 7.67 373.457 7.67C374.615 7.67 375.664 7.92667 376.603 8.44C377.541 8.93867 378.275 9.63533 378.803 10.53C379.345 11.4247 379.617 12.4147 379.617 13.5C379.617 14.5853 379.345 15.5753 378.803 16.47C378.275 17.3647 377.541 18.0687 376.603 18.582C375.664 19.0807 374.615 19.33 373.457 19.33ZM373.457 16.382C374.337 16.382 375.07 16.1107 375.657 15.568C376.243 15.0107 376.537 14.3213 376.537 13.5C376.537 12.6787 376.243 11.9967 375.657 11.454C375.07 10.8967 374.337 10.618 373.457 10.618C372.577 10.618 371.843 10.8967 371.257 11.454C370.67 11.9967 370.377 12.6787 370.377 13.5C370.377 14.3213 370.67 15.0107 371.257 15.568C371.843 16.1107 372.577 16.382 373.457 16.382ZM393.69 19H390.698V14.93H385.682V19H382.69V8H385.682V12.07H390.698V8H393.69V19ZM409.313 21.684H406.497V19H399.017L399.105 21.684H396.289L395.783 16.14L396.663 16.184C397.044 16.1987 397.323 16.0153 397.499 15.634C397.69 15.2527 397.807 14.754 397.851 14.138C397.895 13.5073 397.917 12.6273 397.917 11.498V8H407.685V16.14H409.621L409.313 21.684ZM404.693 10.794H400.821V11.894C400.821 13.6247 400.63 15.04 400.249 16.14H404.693V10.794Z" fill="black"/>
</svg>
