<svg width="257" height="209" viewBox="0 0 257 209" fill="none" xmlns="http://www.w3.org/2000/svg">
<path d="M51.1877 74.8468L56.092 121.088C56.092 121.088 65.8107 98.9935 60.2067 86.6727C57.8019 81.3856 51.1877 74.8468 51.1877 74.8468ZM51.1877 74.8468L8.163 45.9168C8.163 45.9168 20.3802 70.7076 35.2903 74.4295C41.316 75.9336 51.1877 74.8468 51.1877 74.8468ZM51.1877 74.8468L84.1474 37.8579C84.1474 37.8579 58.3703 44.9436 52.9446 60.9072C51.179 66.102 51.1877 74.8468 51.1877 74.8468Z" stroke="#F0243D" stroke-width="0.526448"/>
<path fill-rule="evenodd" clip-rule="evenodd" d="M128.13 84.0166L159.285 166.471L171.992 161.67L142.986 84.9012L207.278 88.7298L208.085 75.1697L137.726 70.9798L120.748 26.0438L108.04 30.8451L122.87 70.0952L51.0629 65.8191L50.2554 79.3792L128.13 84.0166Z" stroke="#F0243D" stroke-width="0.526448"/>
<path d="M203.155 83.3997L159.759 100.105C159.759 100.105 183.615 103.774 194.066 95.1721C198.551 91.4809 203.155 83.3997 203.155 83.3997L247.414 105.663C247.414 105.663 233.898 82.598 217.074 81.4889C211.599 81.1279 203.155 83.3997 203.155 83.3997L219.963 34.3534C219.963 34.3534 199.179 52.5707 199.443 67.9359C199.55 74.1456 203.155 83.3997 203.155 83.3997Z" fill="white"/>
<path d="M203.155 83.3997L159.759 100.105C159.759 100.105 183.615 103.774 194.066 95.1721C198.551 91.4809 203.155 83.3997 203.155 83.3997ZM203.155 83.3997L219.963 34.3534C219.963 34.3534 199.179 52.5707 199.443 67.9359C199.55 74.1456 203.155 83.3997 203.155 83.3997ZM203.155 83.3997L247.414 105.663C247.414 105.663 233.898 82.598 217.074 81.4889C211.599 81.1279 203.155 83.3997 203.155 83.3997Z" stroke="#F0243D" stroke-width="0.526448"/>
<path d="M162.588 158.691L167.492 204.932C167.492 204.932 177.211 182.838 171.607 170.517C169.202 165.23 162.588 158.691 162.588 158.691L195.548 121.702C195.548 121.702 169.771 128.788 164.345 144.751C162.579 149.946 162.588 158.691 162.588 158.691L119.563 129.761C119.563 129.761 131.781 154.552 146.691 158.274C152.716 159.778 162.588 158.691 162.588 158.691Z" fill="white"/>
<path d="M162.588 158.691L167.492 204.932C167.492 204.932 177.211 182.838 171.607 170.517C169.202 165.23 162.588 158.691 162.588 158.691ZM162.588 158.691L119.563 129.761C119.563 129.761 131.781 154.552 146.691 158.274C152.716 159.778 162.588 158.691 162.588 158.691ZM162.588 158.691L195.548 121.702C195.548 121.702 169.771 128.788 164.345 144.751C162.579 149.946 162.588 158.691 162.588 158.691Z" stroke="#F0243D" stroke-width="0.526448"/>
<path d="M114.211 29.448L157.607 12.7428C157.607 12.7428 133.75 9.07355 123.299 17.6755C118.815 21.3668 114.211 29.448 114.211 29.448L69.9515 7.18476C69.9515 7.18476 83.4674 30.2497 100.291 31.3588C105.766 31.7197 114.211 29.448 114.211 29.448L97.402 78.4943C97.402 78.4943 118.186 60.277 117.922 44.9117C117.815 38.702 114.211 29.448 114.211 29.448Z" fill="white"/>
<path d="M114.211 29.448L157.607 12.7428C157.607 12.7428 133.75 9.07356 123.299 17.6755C118.815 21.3668 114.211 29.448 114.211 29.448ZM114.211 29.448L97.402 78.4943C97.402 78.4943 118.186 60.277 117.922 44.9117C117.815 38.702 114.211 29.448 114.211 29.448ZM114.211 29.448L69.9515 7.18476C69.9515 7.18476 83.4674 30.2497 100.291 31.3588C105.766 31.7197 114.211 29.448 114.211 29.448Z" stroke="#F0243D" stroke-width="0.526448"/>
<circle cx="10.1881" cy="10.1881" r="9.92485" transform="matrix(0.913929 0.405873 0.405873 -0.913929 37.5996 77.9468)" fill="white" stroke="#F0243D" stroke-width="0.526448"/>
<circle cx="10.1881" cy="10.1881" r="9.92485" transform="matrix(0.913929 0.405873 0.405873 -0.913929 149.084 163.688)" fill="white" stroke="#F0243D" stroke-width="0.526448"/>
<circle cx="10.1881" cy="10.1881" r="9.92485" transform="matrix(0.913929 0.405873 0.405873 -0.913929 188.889 86.6099)" fill="white" stroke="#F0243D" stroke-width="0.526448"/>
<path d="M149.652 43.1745L89.3719 108.836L110.669 125.726L163.707 55.4544L157.477 50.1331C165.06 40.9206 180.853 27.304 197.109 20.6295L198.783 24.5833L210.419 21.3904L205.977 11.5214L194.513 14.3263L195.918 17.7371C186.938 21.8211 166.24 33.6439 155.288 48.2635L149.652 43.1745Z" fill="white"/>
<path d="M157.477 50.1331L163.707 55.4544L110.669 125.726L89.3719 108.836L149.652 43.1745L155.288 48.2635M157.477 50.1331L155.288 48.2635M157.477 50.1331C165.06 40.9206 180.853 27.3039 197.109 20.6295M195.918 17.7371L194.513 14.3263L205.977 11.5214L210.419 21.3904L198.783 24.5833L197.109 20.6295M195.918 17.7371C186.938 21.8211 166.24 33.6439 155.288 48.2635M195.918 17.7371L197.109 20.6295" stroke="#F0243D" stroke-width="0.849006"/>
<circle cx="10.1881" cy="10.1881" r="9.92485" transform="matrix(0.913929 0.405873 0.405873 -0.913929 102.584 36.2061)" fill="white" stroke="#F0243D" stroke-width="0.526448"/>
</svg>
