<svg width="142" height="38" viewBox="0 0 142 38" fill="none" xmlns="http://www.w3.org/2000/svg">
    <path d="M135.043 15.5977C137.287 15.5977 138.994 16.1342 140.165 17.2074C141.336 18.2806 141.921 19.8318 141.921 21.8611V30.6708H138.087V29.0611C137.365 29.705 136.565 30.2123 135.687 30.583C134.809 30.9342 133.863 31.1099 132.848 31.1099C131.424 31.1099 130.253 30.7489 129.336 30.0269C128.419 29.305 127.96 28.2416 127.96 26.8367C127.96 25.666 128.497 24.7099 129.57 23.9684C130.663 23.2074 132.126 22.6708 133.96 22.3586C135.287 22.144 136.194 21.9879 136.682 21.8903C137.17 21.7733 137.511 21.6367 137.707 21.4806C137.902 21.305 137.999 21.0416 137.999 20.6903C137.999 20.2611 137.794 19.9001 137.385 19.6074C136.975 19.3147 136.341 19.1684 135.482 19.1684C134.194 19.1684 133.082 19.4513 132.146 20.0172C131.209 20.5635 130.448 21.344 129.863 22.3586L127.258 19.3733C128.233 18.144 129.414 17.2074 130.799 16.5635C132.185 15.9196 133.599 15.5977 135.043 15.5977ZM133.404 27.744C133.99 27.744 134.643 27.6172 135.365 27.3635C136.107 27.0903 136.731 26.7294 137.238 26.2806C137.765 25.8318 138.029 25.344 138.029 24.8172V23.9977C137.229 24.4074 136.292 24.7099 135.219 24.905C133.95 25.1586 133.082 25.422 132.614 25.6952C132.165 25.9684 131.941 26.3001 131.941 26.6903C131.941 27.0416 132.048 27.305 132.263 27.4806C132.497 27.6562 132.877 27.744 133.404 27.744Z"
          fill="#111111"/>
    <path d="M119.098 19.8415V30.6708H115.117V16.0366H125.946V19.8415H119.098Z" fill="#111111"/>
    <path d="M106.555 30.6708V25.3439L100.585 30.6708H95.2578L101.843 25.3439C100.419 25.1488 99.3163 24.6513 98.5359 23.8513C97.7554 23.0513 97.3651 22.0074 97.3651 20.7195C97.3651 19.2366 97.8822 18.0854 98.9163 17.2659C99.97 16.4464 101.414 16.0366 103.248 16.0366H110.448V30.6708H106.555ZM101.463 20.9244C101.463 21.9586 102.165 22.4756 103.57 22.4756H106.555V19.4317H103.57C102.887 19.4317 102.36 19.5586 101.99 19.8122C101.638 20.0659 101.463 20.4366 101.463 20.9244Z"
          fill="#111111"/>
    <path d="M90.6825 19.8415V30.6708H86.7605V19.8415H81.5508V16.0366H95.8922V19.8415H90.6825Z" fill="#111111"/>
    <path d="M79.0534 27.1879C78.4095 28.4172 77.4826 29.383 76.2729 30.0855C75.0631 30.7684 73.5802 31.1099 71.8241 31.1099C70.2436 31.1099 68.8387 30.7781 67.6095 30.1147C66.3802 29.4318 65.4143 28.505 64.7119 27.3342C64.029 26.144 63.6875 24.8172 63.6875 23.3538C63.6875 21.9099 64.0192 20.5928 64.6826 19.4025C65.346 18.2123 66.2631 17.2855 67.4338 16.622C68.6046 15.9391 69.9119 15.5977 71.3558 15.5977C72.9753 15.5977 74.3021 15.9001 75.3363 16.505C76.3899 17.0903 77.1509 17.8611 77.6192 18.8172C78.0875 19.7733 78.3216 20.8074 78.3216 21.9196C78.3216 22.7781 78.1851 23.6172 77.9119 24.4367H67.6095C67.8436 25.3538 68.3412 26.0952 69.1021 26.6611C69.8826 27.2269 70.7899 27.5099 71.8241 27.5099C72.8582 27.5099 73.7265 27.3147 74.429 26.9245C75.1314 26.5147 75.6485 25.9684 75.9802 25.2855L79.0534 27.1879ZM71.3558 19.0806C70.4582 19.0806 69.6973 19.305 69.0729 19.7538C68.4485 20.2025 67.9997 20.8269 67.7265 21.6269H74.546C74.5265 20.8464 74.2534 20.2318 73.7265 19.783C73.1997 19.3147 72.4095 19.0806 71.3558 19.0806Z"
          fill="#111111"/>
    <path d="M39.6016 25.9293C40.343 26.2415 40.9772 26.3976 41.504 26.3976C41.6406 26.3976 41.826 26.3781 42.0601 26.3391C42.5284 26.2415 42.8894 25.9293 43.143 25.4025C43.3967 24.8757 43.5723 24.0171 43.6699 22.8269C43.7869 21.6171 43.8552 19.9001 43.8747 17.6757L43.9333 10.183H60.2942V30.6708H55.8455V14.4854H48.2942L48.2357 18.8171C48.1967 21.5098 48.0308 23.7049 47.7381 25.4025C47.465 27.0805 46.9089 28.4074 46.0699 29.383C45.2503 30.3586 44.0406 30.8464 42.4406 30.8464C41.9723 30.8464 41.3479 30.7391 40.5674 30.5244L39.6016 25.9293Z"
          fill="#111111"/>
    <path fill-rule="evenodd" clip-rule="evenodd"
          d="M23.1156 5.5C21.9348 8.16478 19.7518 13.963 20.9993 18.0586C22.1882 21.962 25.9408 25.3899 27.9993 27.0377V27.8875C26.0605 27.6476 22.4268 27.2917 19.3297 27.5185C15.0982 27.8285 11.1357 31.0983 8.76414 33.5H7.57199C8.80491 30.3182 10.5332 24.9537 9.49927 22.0586C7.55484 16.6142 2.74367 13.0864 -1.44854e-05 11.4455V11.0888C2.93113 12.0518 8.43751 13.5247 12.0683 12.4371C15.6342 11.369 20.0432 7.60051 22.3051 5.5L-1.44854e-05 5.5V11.0888C-0.000253815 11.0887 -0.000493127 11.0886 -0.000732422 11.0885V11.4451C-0.000493125 11.4452 -0.000253813 11.4453 -1.44854e-05 11.4455V33.5H28V5.5L23.1156 5.5Z"
          fill="#111111"/>
</svg>
